Coordinates
version=1
nRows=29
nColumns=24
inDegrees=yes

Units are S.I. units (second, meters, Newtons, ...)
Angles are in degrees.

endheader
time	pelvis_tilt	pelvis_list	pelvis_rotation	pelvis_tx	pelvis_ty	pelvis_tz	hip_flexion_r	hip_adduction_r	hip_rotation_r	knee_angle_r	ankle_angle_r	subtalar_angle_r	mtp_angle_r	hip_flexion_l	hip_adduction_l	hip_rotation_l	knee_angle_l	ankle_angle_l	subtalar_angle_l	mtp_angle_l	lumbar_extension	lumbar_bending	lumbar_rotation
      4.35000000	    -17.04283595	      3.47314603	     -6.81607035	     -1.32710450	     -0.04115331	     -0.36704552	      0.06198683	     -1.86128671	     -2.03686124	    -18.19899014	     11.43407136	      1.56464603	     -0.50294446	     44.34386349	     -1.49561588	    -16.64581669	    -14.51223921	     -1.93546432	      4.04957387	     23.15274937	     19.56679715	     -1.41764184	     -1.54574002
      4.35500000	    -17.01262726	      3.71753480	     -6.81004706	     -1.31919075	     -0.04190236	     -0.36756629	     -0.05222223	     -2.30453737	     -2.07030235	    -18.93821023	     10.84595707	      1.87149409	     -0.26147390	     44.35603047	     -1.25899252	    -16.56436106	    -15.21908183	     -2.54839431	      3.48027917	     23.18458837	     19.73729130	     -1.67991873	     -1.52918033
      4.36000000	    -16.99394141	      3.97861343	     -6.79197481	     -1.31120105	     -0.04259580	     -0.36811074	     -0.11304826	     -2.77288449	     -2.14262090	    -19.73892234	     10.17353815	      2.19148375	      0.04949997	     44.37447816	     -0.99884968	    -16.48193959	    -15.95712983	     -3.28830767	      2.80970860	     23.21374084	     19.93279008	     -1.96173063	     -1.52679638
      4.36500000	    -16.98548823	      4.25040964	     -6.75877137	     -1.30315917	     -0.04322672	     -0.36870569	     -0.12207532	     -3.25945778	     -2.23086023	    -20.59557381	      9.39943869	      2.49035676	      0.44284134	     44.40438508	     -0.71642810	    -16.39713706	    -16.72372455	     -4.11931920	      2.06583400	     23.22067053	     20.14621028	     -2.25667287	     -1.53326774
      4.37000000	    -16.96042426	      4.48180984	     -6.67330571	     -1.29513295	     -0.04379866	     -0.36945402	     -0.09343625	     -3.74115584	     -2.55306692	    -21.52511694	      8.48925399	      2.85356289	      1.38825779	     44.42876226	     -0.40891930	    -16.15333579	    -17.51596162	     -4.99246284	      1.17802955	     23.28665670	     20.32549830	     -2.51988947	     -1.57718926
      4.37500000	    -16.97923142	      4.76668172	     -6.56602021	     -1.28696660	     -0.04429401	     -0.37017881	     -0.02054828	     -4.25927924	     -2.70769296	    -22.41481068	      7.42540751	      3.04670282	      2.66649464	     44.50373922	     -0.05403636	    -16.00406476	    -18.34303779	     -5.89994355	      0.33144808	     23.14793324	     20.58270101	     -2.84743875	     -1.66621278
      4.38000000	    -16.97797408	      5.10527171	     -6.58421728	     -1.27881600	     -0.04464396	     -0.37064692	      0.14764083	     -4.79467349	     -2.60889346	    -23.47246959	      6.27798023	      3.02283560	      3.05099057	     44.52546379	      0.26086254	    -15.88735122	    -19.14610982	     -6.66786216	     -0.44966806	     22.87239164	     20.83484079	     -3.19699506	     -1.57672532
      4.38500000	    -17.00809757	      5.38230472	     -6.38595891	     -1.27064393	     -0.04503201	     -0.37158092	      0.34808647	     -5.34929174	     -3.03839541	    -24.48091429	      4.87577949	      3.05190643	      5.58801750	     44.63459812	      0.71667300	    -15.43018910	    -20.05548502	     -7.31111509	     -1.20745116	     21.92585272	     21.09112335	     -3.53964932	     -1.70002837
      4.39000000	    -17.03384863	      5.66793033	     -6.36724902	     -1.26255907	     -0.04528156	     -0.37234552	      0.68264951	     -5.88856082	     -3.12087667	    -25.70090875	      3.46538344	      3.20122236	      6.44442251	     44.70251250	      1.08011355	    -15.00661523	    -20.90051023	     -7.84503484	     -2.18182151	     21.28623987	     21.34675520	     -3.80827449	     -1.59417298
      4.39500000	    -17.07574618	      5.96809380	     -6.21077457	     -1.25431887	     -0.04549242	     -0.37323822	      1.01597389	     -6.45162570	     -3.34699640	    -26.83752721	      1.75746303	      3.01425105	      8.71905371	     44.81038811	      1.55057266	    -14.59222192	    -21.84489165	     -8.12693707	     -2.85787626	     19.84739905	     21.63477556	     -4.15079046	     -1.70442664
      4.40000000	    -17.06915563	      6.26166771	     -6.14306654	     -1.24625090	     -0.04559889	     -0.37404182	      1.42061505	     -7.00051159	     -3.42228012	    -28.11954032	     -0.03269292	      2.77044998	     10.62499599	     44.85172156	      1.98042992	    -14.15014195	    -22.76262243	     -8.24755969	     -3.59205208	     18.52944919	     21.84717153	     -4.45768322	     -1.68496984
      4.40500000	    -17.06279382	      6.54370933	     -6.07050550	     -1.23822281	     -0.04566570	     -0.37487395	      1.89346561	     -7.53703587	     -3.47321273	    -29.46601116	     -1.97149858	      2.42481599	     12.65220917	     44.88249387	      2.41911166	    -13.68645238	    -23.68561793	     -8.16981045	     -4.23432075	     17.05558777	     22.05219642	     -4.75118527	     -1.65930038
      4.41000000	    -17.03869789	      6.81937617	     -6.01534631	     -1.23024947	     -0.04567124	     -0.37568828	      2.41955812	     -8.06020012	     -3.45687073	    -30.87087146	     -4.05677870	      1.96562619	     14.75063078	     44.87196667	      2.85232370	    -13.25444315	    -24.59110165	     -7.91857871	     -4.80136123	     15.51179627	     22.23132929	     -5.03115081	     -1.60919494
      4.41500000	    -16.99644323	      7.08753911	     -5.97412348	     -1.22235920	     -0.04562146	     -0.37647292	      2.99923253	     -8.56353905	     -3.37732634	    -32.33482136	     -6.26243640	      1.39895145	     16.83026983	     44.81482951	      3.27505432	    -12.87626228	    -25.46237184	     -7.52430448	     -5.28409560	     13.98734021	     22.37765266	     -5.30095234	     -1.54012623
      4.42000000	    -16.94963468	      7.35070610	     -5.93759553	     -1.21454825	     -0.04553492	     -0.37723474	      3.64135566	     -9.04665162	     -3.23791000	    -33.85445465	     -8.55638045	      0.74768421	     18.81765728	     44.71854188	      3.68813039	    -12.57199207	    -26.28006272	     -7.03302067	     -5.68015040	     12.54347783	     22.50915177	     -5.56680546	     -1.46275275
      4.42500000	    -16.89093025	      7.61340878	     -5.91433567	     -1.20684374	     -0.04540980	     -0.37795112	      4.34315410	     -9.51178082	     -3.04015483	    -35.43522637	    -10.90826452	      0.01797012	     20.64248824	     44.57188083	      4.08636550	    -12.35317643	    -27.03225585	     -6.45513369	     -5.99471973	     11.24164240	     22.61217364	     -5.83045655	     -1.37044287
      4.43000000	    -16.82387358	      7.86452355	     -5.91648879	     -1.19933865	     -0.04526189	     -0.37861024	      5.12273278	     -9.94195428	     -2.77647694	    -37.10030810	    -13.24467764	     -0.75647073	     22.15515627	     44.38348871	      4.44861971	    -12.20796545	    -27.71008383	     -5.85689822	     -6.26217694	     10.17645065	     22.67704321	     -6.07873742	     -1.22993191
      4.43500000	    -16.67018329	      8.16384232	     -5.85059811	     -1.19176659	     -0.04499457	     -0.37922430	      5.82520340	    -10.41748420	     -2.58445370	    -38.82800266	    -15.49975466	     -1.48289368	     22.33886688	     44.01699114	      4.89865852	    -12.15461111	    -28.19117589	     -5.34832774	     -6.62546453	      9.99513667	     22.66216084	     -6.43094321	     -1.20346530
      4.44000000	    -16.74989616	      8.40208694	     -5.85110965	     -1.18439985	     -0.04494734	     -0.37985323	      6.85461409	    -10.77878311	     -2.21503950	    -40.50565510	    -17.80253584	     -2.44529084	     24.49172024	     43.91799028	      5.18597566	    -12.24466198	    -28.79964556	     -4.50757567	     -6.43779403	      8.61419762	     22.86899625	     -6.64347437	     -1.09031972
      4.44500000	    -16.57155901	      8.68990493	     -5.80402751	     -1.17714311	     -0.04460767	     -0.38046099	      7.64045485	    -11.21824498	     -1.97993284	    -42.29349445	    -19.85874492	     -3.25123726	     24.59954962	     43.45028900	      5.61286923	    -12.28308486	    -29.12980223	     -3.97144501	     -6.70429165	      8.53620623	     22.77623994	     -6.97588559	     -1.01291496
      4.45000000	    -16.55593541	      8.92410816	     -5.89115457	     -1.17015503	     -0.04438198	     -0.38082651	      8.70928524	    -11.50513714	     -1.48553842	    -44.10294483	    -21.82506220	     -4.18124201	     25.24807743	     43.16325184	      5.80324476	    -12.63809817	    -29.50735008	     -3.29023437	     -6.56239561	      8.24119850	     22.83196746	     -7.18571321	     -0.81747616
      4.45500000	    -16.45824962	      9.23929414	     -5.78794947	     -1.16301705	     -0.04408520	     -0.38139213	      9.63424600	    -11.94808438	     -1.30998805	    -45.90010503	    -23.48607459	     -5.08924753	     25.39950267	     42.69676356	      6.25496208	    -12.74939934	    -29.68794357	     -2.67547608	     -6.53010247	      8.21835135	     22.81114569	     -7.57138035	     -0.80247071
      4.46000000	    -16.47630370	      9.47377917	     -5.84849620	     -1.15617865	     -0.04382817	     -0.38170761	     10.78921056	    -12.19755321	     -0.84828700	    -47.70396523	    -24.97354917	     -6.04717892	     25.80063689	     42.35801891	      6.45097162	    -13.10999552	    -29.90115799	     -1.96506184	     -6.21220033	      8.12865458	     22.88081812	     -7.79262186	     -0.61999130
      4.46500000	    -16.38756157	      9.76177261	     -5.76034151	     -1.14925908	     -0.04343796	     -0.38220511	     11.78032064	    -12.57869833	     -0.66566012	    -49.47075281	    -26.11216545	     -6.98527306	     25.82799223	     41.84080199	      6.84304813	    -13.36656291	    -29.96413516	     -1.37627422	     -6.05423291	      8.21342551	     22.83256289	     -8.14791958	     -0.63618977
      4.47000000	    -16.35660112	     10.00296268	     -5.79067952	     -1.14258545	     -0.04303073	     -0.38244071	     12.91355879	    -12.80930108	     -0.27049006	    -51.23719318	    -26.97106885	     -7.94945150	     25.77567427	     41.38412636	      7.06735481	    -13.76586522	    -30.02855085	     -0.78185787	     -5.74554853	      8.37145045	     22.82093841	     -8.41595656	     -0.53362728
      4.47500000	    -16.35549117	     10.22934236	     -5.80807186	     -1.13589735	     -0.04258414	     -0.38270117	     14.07805007	    -13.01805683	      0.07908839	    -52.95493301	    -27.47512931	     -8.84752234	     25.57946765	     40.90395010	      7.29765890	    -14.12321400	    -29.99517242	     -0.18012404	     -5.40343378	      8.59175927	     22.84457287	     -8.66548830	     -0.46564701
      4.48000000	    -16.35260879	     10.43127525	     -5.80570009	     -1.12926647	     -0.04208772	     -0.38295487	     15.23624764	    -13.19143036	      0.38108507	    -54.62223187	    -27.59401228	     -9.68252657	     25.22273030	     40.39757284	      7.52699521	    -14.43610999	    -29.91698460	      0.39957870	     -5.06305164	      8.86386242	     22.85223324	     -8.90107720	     -0.41366184
      4.48500000	    -16.33673826	     10.60878513	     -5.79341301	     -1.12267731	     -0.04147841	     -0.38319229	     16.37416740	    -13.32506158	      0.65622840	    -56.21239794	    -27.40374316	    -10.46084080	     24.79631915	     39.84651346	      7.75168592	    -14.72144503	    -29.78151716	      0.92230457	     -4.72696208	      9.14132626	     22.83559391	     -9.12599766	     -0.42137017
      4.49000000	    -16.30078807	     10.74905890	     -5.72028046	     -1.11612161	     -0.04074480	     -0.38347467	     17.45308880	    -13.42761919	      0.85131211	    -57.69717879	    -26.90974623	    -11.13145007	     24.47896191	     39.24297074	      8.00144590	    -14.88184866	    -29.59564635	      1.39239865	     -4.36196687	      9.37830330	     22.77576469	     -9.34762338	     -0.54901229
